<mxfile host="app.diagrams.net" agent="Mozilla/5.0 (Windows NT 10.0; Win64; x64) AppleWebKit/537.36 (KHTML, like Gecko) Chrome/127.0.0.0 Safari/537.36" version="24.7.6">
  <diagram name="Página-1" id="mq_T-u5scJ2OYbR8NSX9">
    <mxGraphModel dx="880" dy="512" grid="1" gridSize="10" guides="1" tooltips="1" connect="1" arrows="1" fold="1" page="1" pageScale="1" pageWidth="827" pageHeight="1169" math="0" shadow="0">
      <root>
        <mxCell id="0" />
        <mxCell id="1" parent="0" />
        <mxCell id="U4unH-BkPLCba_aEcJx9-1" value="Usuario Estudiante" style="swimlane;childLayout=stackLayout;horizontal=1;startSize=50;horizontalStack=0;rounded=1;fontSize=14;fontStyle=0;strokeWidth=2;resizeParent=0;resizeLast=1;shadow=0;dashed=0;align=center;arcSize=4;whiteSpace=wrap;html=1;" vertex="1" parent="1">
          <mxGeometry x="20" y="30" width="260" height="240" as="geometry" />
        </mxCell>
        <mxCell id="U4unH-BkPLCba_aEcJx9-2" value="+correo&lt;br&gt;+insignias&lt;br&gt;+cursos asignados&lt;div&gt;+accesos(sesiones iprimer ingreso y ultimo&lt;/div&gt;&lt;div&gt;+contraseña&lt;/div&gt;&lt;div&gt;+grado&lt;/div&gt;&lt;div&gt;+certificados&lt;/div&gt;&lt;div&gt;+Nombre&amp;nbsp;&lt;/div&gt;&lt;div&gt;+apellido&lt;/div&gt;&lt;div&gt;+carnet&lt;/div&gt;&lt;div&gt;+calificaciones&lt;/div&gt;&lt;div&gt;+role (default estudiante)&lt;/div&gt;" style="align=left;strokeColor=none;fillColor=none;spacingLeft=4;fontSize=12;verticalAlign=top;resizable=0;rotatable=0;part=1;html=1;" vertex="1" parent="U4unH-BkPLCba_aEcJx9-1">
          <mxGeometry y="50" width="260" height="190" as="geometry" />
        </mxCell>
        <mxCell id="U4unH-BkPLCba_aEcJx9-5" value="Usuario Profesor" style="swimlane;childLayout=stackLayout;horizontal=1;startSize=50;horizontalStack=0;rounded=1;fontSize=14;fontStyle=0;strokeWidth=2;resizeParent=0;resizeLast=1;shadow=0;dashed=0;align=center;arcSize=4;whiteSpace=wrap;html=1;" vertex="1" parent="1">
          <mxGeometry x="20" y="290" width="260" height="270" as="geometry" />
        </mxCell>
        <mxCell id="U4unH-BkPLCba_aEcJx9-6" value="+correo&lt;br&gt;+insignias&lt;br&gt;+cursos Creados&lt;div&gt;+cursos Asignados&lt;br&gt;&lt;div&gt;+accesos(sesiones iprimer ingreso y ultimo&lt;/div&gt;&lt;div&gt;+contraseña&lt;/div&gt;&lt;div&gt;+grados&lt;/div&gt;&lt;div&gt;+certificados&lt;/div&gt;&lt;div&gt;+Nombre&amp;nbsp;&lt;/div&gt;&lt;div&gt;+apellido&lt;/div&gt;&lt;div&gt;+carnet o identificacion&lt;/div&gt;&lt;div&gt;+calificaciones&lt;/div&gt;&lt;div&gt;+role (default profesor)&lt;/div&gt;&lt;/div&gt;" style="align=left;strokeColor=none;fillColor=none;spacingLeft=4;fontSize=12;verticalAlign=top;resizable=0;rotatable=0;part=1;html=1;" vertex="1" parent="U4unH-BkPLCba_aEcJx9-5">
          <mxGeometry y="50" width="260" height="220" as="geometry" />
        </mxCell>
        <mxCell id="U4unH-BkPLCba_aEcJx9-7" value="Cursos" style="swimlane;childLayout=stackLayout;horizontal=1;startSize=50;horizontalStack=0;rounded=1;fontSize=14;fontStyle=0;strokeWidth=2;resizeParent=0;resizeLast=1;shadow=0;dashed=0;align=center;arcSize=4;whiteSpace=wrap;html=1;" vertex="1" parent="1">
          <mxGeometry x="360" y="30" width="200" height="170" as="geometry" />
        </mxCell>
        <mxCell id="U4unH-BkPLCba_aEcJx9-8" value="+nombre Del Curso&lt;div&gt;+fecha de creacion&lt;br&gt;+creador&lt;/div&gt;&lt;div&gt;+modulos&lt;/div&gt;&lt;div&gt;+certificado&lt;/div&gt;&lt;div&gt;+progreso&lt;/div&gt;" style="align=left;strokeColor=none;fillColor=none;spacingLeft=4;fontSize=12;verticalAlign=top;resizable=0;rotatable=0;part=1;html=1;" vertex="1" parent="U4unH-BkPLCba_aEcJx9-7">
          <mxGeometry y="50" width="200" height="120" as="geometry" />
        </mxCell>
      </root>
    </mxGraphModel>
  </diagram>
</mxfile>
